<svg xmlns="http://www.w3.org/2000/svg" version="1.1" xmlns:xlink="http://www.w3.org/1999/xlink" xmlns:svgjs="http://svgjs.dev/svgjs" width="2000" height="1431" viewBox="0 0 2000 1431"><g transform="matrix(1,0,0,1,-1.2487724550896928,0.3694476043518762)"><svg viewBox="0 0 334 239" data-background-color="#ffffff" preserveAspectRatio="xMidYMid meet" height="1431" width="2000" xmlns="http://www.w3.org/2000/svg" xmlns:xlink="http://www.w3.org/1999/xlink"><g id="tight-bounds" transform="matrix(1,0,0,1,0.20854499999998666,-0.06170368793857506)"><svg viewBox="0 0 333.58291 239.12340737587715" height="239.12340737587715" width="333.58291"><g><svg></svg></g><g><svg viewBox="0 0 333.58291 239.12340737587715" height="239.12340737587715" width="333.58291"><g transform="matrix(1,0,0,1,-30.96854,-8.076609999999988)"><path d="M30.969 239.123v-231.046h333.582v231.046h-20.463v-5.96h14.503v-219.126h-321.662v219.126l14.503 0 0 5.96z" fill="#2257bf" fill-rule="nonzero" stroke="none" stroke-width="1" stroke-linecap="butt" stroke-linejoin="miter" stroke-miterlimit="10" stroke-dasharray="" stroke-dashoffset="0" font-family="none" font-weight="none" font-size="none" text-anchor="none" style="mix-blend-mode: normal" data-fill-palette-color="tertiary"></path><g><path transform="translate(67.85892,241.92032) scale(0.44752,0.44752)" d="M11.4-32.1v0 27.71c0 1.313 0.27 2.273 0.81 2.88 0.533 0.6 1.55 1.037 3.05 1.31v0l-0.22 0.59c-1.853-0.26-3.32-0.39-4.4-0.39v0c-0.96 0-2.073 0.13-3.34 0.39v0l-0.15-0.24c0.327-0.473 0.49-1.337 0.49-2.59v0-25.66c0-2.313-0.263-3.83-0.79-4.55-0.533-0.727-1.703-1.09-3.51-1.09v0l-0.09-0.71c4.52-0.667 8.157-1 10.91-1v0c1.887 0 3.56 0.14 5.02 0.42 1.453 0.273 2.767 0.733 3.94 1.38 1.173 0.64 2.073 1.53 2.7 2.67 0.627 1.14 0.94 2.513 0.94 4.12v0c0 1.78-0.573 3.397-1.72 4.85-1.147 1.46-2.573 2.567-4.28 3.32-1.7 0.76-3.437 1.14-5.21 1.14v0c-0.7 0-1.22-0.033-1.56-0.1v0-0.86c1.233 0 2.377-0.16 3.43-0.48 1.047-0.327 1.983-0.817 2.81-1.47 0.82-0.653 1.463-1.51 1.93-2.57 0.46-1.067 0.69-2.293 0.69-3.68v0c0-2.227-0.56-3.993-1.68-5.3-1.127-1.3-2.887-1.95-5.28-1.95v0c-1.753 0-3.3 0.107-4.64 0.32v0c0.1 0.487 0.15 1 0.15 1.54zM62.84-32.59v0 28.2c0 1.313 0.27 2.273 0.81 2.88 0.533 0.6 1.55 1.037 3.05 1.31v0l-0.2 0.59c-1.807-0.247-3.18-0.377-4.12-0.39-0.947-0.013-2.153 0.117-3.62 0.39v0l-0.17-0.24c0.347-0.473 0.52-1.337 0.52-2.59v0-16.07c-7.18-0.16-13.413-0.16-18.7 0v0 16.02c0 1.153 0.25 1.983 0.75 2.49v0l-0.14 0.24c-2.133-0.32-4.203-0.287-6.21 0.1v0l-0.17-0.24c0.833-0.733 1.377-1.393 1.63-1.98 0.253-0.587 0.38-1.44 0.38-2.56v0-23.66c0-2.293-0.273-3.84-0.82-4.64-0.547-0.8-1.707-1.133-3.48-1v0l-0.1-0.46c2.687-0.8 5.233-1.2 7.64-1.2v0c0.347 0.86 0.52 1.797 0.52 2.81v0 12.35c6.2 0.247 12.433 0.247 18.7 0v0-7.86c0-2.293-0.277-3.84-0.83-4.64-0.553-0.8-1.71-1.133-3.47-1v0l-0.1-0.46c2.687-0.8 5.233-1.2 7.64-1.2v0c0.327 0.893 0.49 1.83 0.49 2.81zM81.35-32.1v0 27.71c0 1.313 0.267 2.273 0.8 2.88 0.54 0.6 1.56 1.037 3.06 1.31v0l-0.22 0.59c-1.86-0.26-3.327-0.39-4.4-0.39v0c-0.96 0-2.073 0.13-3.34 0.39v0l-0.15-0.24c0.327-0.473 0.49-1.337 0.49-2.59v0-25.66c0-2.313-0.267-3.83-0.8-4.55-0.527-0.727-1.693-1.09-3.5-1.09v0l-0.1-0.71c4.527-0.667 8.167-1 10.92-1v0c1.887 0 3.557 0.14 5.01 0.42 1.46 0.273 2.777 0.733 3.95 1.38 1.167 0.64 2.063 1.53 2.69 2.67 0.627 1.14 0.94 2.513 0.94 4.12v0c0 1.78-0.573 3.397-1.72 4.85-1.147 1.46-2.57 2.567-4.27 3.32-1.7 0.76-3.437 1.14-5.21 1.14v0c-0.7 0-1.22-0.033-1.56-0.1v0-0.86c1.233 0 2.377-0.16 3.43-0.48 1.047-0.327 1.98-0.817 2.8-1.47 0.827-0.653 1.47-1.51 1.93-2.57 0.467-1.067 0.7-2.293 0.7-3.68v0c0-2.227-0.563-3.993-1.69-5.3-1.12-1.3-2.877-1.95-5.27-1.95v0c-1.76 0-3.307 0.107-4.64 0.32v0c0.1 0.487 0.15 1 0.15 1.54zM123.34-32.54v0 30.39c0.88 0.113 1.727 0.2 2.54 0.26 0.813 0.053 1.61 0.08 2.39 0.08v0c2.753 0 5.22-0.353 7.4-1.06 2.18-0.707 4.027-1.78 5.54-3.22 1.513-1.44 2.673-3.24 3.48-5.4 0.807-2.153 1.21-4.687 1.21-7.6v0c-0.02-1.92-0.263-3.62-0.73-5.1-0.473-1.487-1.133-2.777-1.98-3.87-0.847-1.1-1.843-2.02-2.99-2.76-1.147-0.74-2.393-1.343-3.74-1.81-1.34-0.467-2.757-0.797-4.25-0.99-1.487-0.193-2.993-0.29-4.52-0.29v0c-0.733 0-1.467 0.023-2.2 0.07-0.733 0.053-1.483 0.12-2.25 0.2v0c0.033 0.227 0.06 0.433 0.08 0.62 0.013 0.187 0.02 0.347 0.02 0.48zM115.28-33.74l-0.09-0.71c1.413-0.18 2.68-0.337 3.8-0.47 1.127-0.14 2.22-0.26 3.28-0.36 1.053-0.093 2.143-0.167 3.27-0.22 1.12-0.047 2.39-0.07 3.81-0.07v0c1.22 0 2.333 0.033 3.34 0.1 1.007 0.06 1.963 0.17 2.87 0.33 0.9 0.153 1.787 0.357 2.66 0.61 0.873 0.247 1.79 0.55 2.75 0.91v0c1.287 0.487 2.47 1.143 3.55 1.97 1.08 0.82 2.01 1.823 2.79 3.01 0.787 1.187 1.393 2.57 1.82 4.15 0.433 1.58 0.65 3.38 0.65 5.4v0c-0.013 2.393-0.323 4.523-0.93 6.39-0.6 1.873-1.437 3.52-2.51 4.94-1.073 1.413-2.347 2.617-3.82 3.61-1.473 0.993-3.073 1.8-4.8 2.42-1.727 0.613-3.55 1.06-5.47 1.34-1.92 0.273-3.863 0.41-5.83 0.41v0c-0.167 0-0.7 0.007-1.6 0.02-0.907 0.007-1.873 0.05-2.9 0.13-1.02 0.08-1.913 0.17-2.68 0.27v0l-0.15-0.24c0.327-0.473 0.49-1.337 0.49-2.59v0-25.71c0-1.073-0.05-1.973-0.15-2.7-0.093-0.72-0.27-1.3-0.53-1.74-0.26-0.44-0.627-0.753-1.1-0.94-0.473-0.187-0.92-0.28-1.34-0.28-0.427 0-0.697 0-0.81 0-0.113 0-0.237 0.007-0.37 0.02zM174.29-17.65v14.89c0 0.28 0.063 0.537 0.19 0.77 0.12 0.233 0.263 0.43 0.43 0.59 0.173 0.153 0.423 0.303 0.75 0.45 0.327 0.147 0.61 0.26 0.85 0.34 0.247 0.08 0.59 0.187 1.03 0.32v0l-0.2 0.58c-1.04-0.193-2.073-0.29-3.1-0.29v0c-1.287 0-2.557 0.13-3.81 0.39v0l-0.14-0.24c0.34-0.473 0.51-1.337 0.51-2.59v0-1.61c-0.813 1.513-2.08 2.733-3.8 3.66-1.713 0.927-3.45 1.39-5.21 1.39v0c-1.873 0-3.383-0.483-4.53-1.45-1.147-0.967-1.72-2.403-1.72-4.31v0c0-1.24 0.257-2.343 0.77-3.31 0.513-0.967 1.197-1.787 2.05-2.46 0.853-0.68 1.953-1.28 3.3-1.8 1.34-0.52 2.723-0.943 4.15-1.27 1.42-0.327 3.083-0.627 4.99-0.9v0-2.25c0-4.473-1.767-6.71-5.3-6.71v0c-1.14 0-2.533 0.28-4.18 0.84-1.653 0.56-3.043 1.297-4.17 2.21v0l-1-1.15c1.42-1.12 3.1-2.047 5.04-2.78 1.947-0.733 3.767-1.1 5.46-1.1v0c0.747 0 1.46 0.07 2.14 0.21 0.673 0.14 1.357 0.39 2.05 0.75 0.693 0.367 1.287 0.833 1.78 1.4 0.493 0.56 0.897 1.307 1.21 2.24 0.307 0.94 0.46 2.003 0.46 3.19zM162.94-0.85v0c1.413 0 2.893-0.47 4.44-1.41 1.547-0.933 2.687-2.1 3.42-3.5v0-7.45c-4.167 0.607-7.14 1.53-8.92 2.77-1.787 1.247-2.68 3.06-2.68 5.44v0c0 1.447 0.31 2.5 0.93 3.16 0.62 0.66 1.557 0.99 2.81 0.99zM189.18-22.61v15.87c0 2.213 0.247 3.74 0.74 4.58 0.487 0.84 1.277 1.26 2.37 1.26v0c1.187 0 2.633-0.45 4.34-1.35v0l0.76 1.05c-2.687 1.467-4.883 2.2-6.59 2.2v0c-0.913 0-1.657-0.08-2.23-0.24-0.567-0.167-1.087-0.487-1.56-0.96-0.473-0.467-0.81-1.16-1.01-2.08-0.207-0.92-0.31-2.113-0.31-3.58v0-16.55l-3.66 0.22v-1.56c1.287-0.28 2.507-0.46 3.66-0.54v0-3.47c1.387-0.78 2.52-1.893 3.4-3.34v0l0.75 0.29c-0.273 0.653-0.45 1.39-0.53 2.21-0.087 0.82-0.13 2.207-0.13 4.16v0h8.4v0.86c-0.68 0.273-1.37 0.503-2.07 0.69-0.7 0.187-1.427 0.28-2.18 0.28v0zM219.82-17.65v14.89c0 0.28 0.063 0.537 0.19 0.77 0.12 0.233 0.267 0.43 0.44 0.59 0.167 0.153 0.413 0.303 0.74 0.45 0.327 0.147 0.613 0.26 0.86 0.34 0.24 0.08 0.58 0.187 1.02 0.32v0l-0.19 0.58c-1.047-0.193-2.08-0.29-3.1-0.29v0c-1.287 0-2.557 0.13-3.81 0.39v0l-0.15-0.24c0.34-0.473 0.51-1.337 0.51-2.59v0-1.61c-0.813 1.513-2.077 2.733-3.79 3.66-1.72 0.927-3.46 1.39-5.22 1.39v0c-1.867 0-3.373-0.483-4.52-1.45-1.153-0.967-1.73-2.403-1.73-4.31v0c0-1.24 0.257-2.343 0.77-3.31 0.513-0.967 1.197-1.787 2.05-2.46 0.86-0.68 1.96-1.28 3.3-1.8 1.34-0.52 2.723-0.943 4.15-1.27 1.427-0.327 3.09-0.627 4.99-0.9v0-2.25c0-4.473-1.763-6.71-5.29-6.71v0c-1.14 0-2.537 0.28-4.19 0.84-1.653 0.56-3.04 1.297-4.16 2.21v0l-1.01-1.15c1.42-1.12 3.103-2.047 5.05-2.78 1.94-0.733 3.757-1.1 5.45-1.1v0c0.753 0 1.467 0.07 2.14 0.21 0.673 0.14 1.357 0.39 2.05 0.75 0.693 0.367 1.287 0.833 1.78 1.4 0.5 0.56 0.903 1.307 1.21 2.24 0.307 0.94 0.46 2.003 0.46 3.19zM208.47-0.85v0c1.42 0 2.903-0.47 4.45-1.41 1.54-0.933 2.677-2.1 3.41-3.5v0-7.45c-4.167 0.607-7.14 1.53-8.92 2.77-1.78 1.247-2.67 3.06-2.67 5.44v0c0 1.447 0.307 2.5 0.92 3.16 0.62 0.66 1.557 0.99 2.81 0.99zM236.72-33.69v0 13.74l12.35-0.73 0.25 0.32-1.15 2c-0.653-0.033-1.33-0.057-2.03-0.07-0.7-0.02-1.43-0.03-2.19-0.03v0c-1.107 0-2.26 0.017-3.46 0.05-1.193 0.033-2.45 0.083-3.77 0.15v0 13.87c0 0.667 0.06 1.233 0.18 1.7 0.12 0.473 0.327 0.873 0.62 1.2 0.293 0.327 0.69 0.59 1.19 0.79 0.493 0.207 1.117 0.373 1.87 0.5v0l-0.22 0.59c-0.993-0.127-1.85-0.223-2.57-0.29-0.713-0.067-1.297-0.1-1.75-0.1-0.46 0-0.973 0.033-1.54 0.1-0.573 0.067-1.2 0.163-1.88 0.29v0l-0.15-0.24c0.327-0.473 0.49-1.337 0.49-2.59v0-25.9c0-1.08-0.05-1.963-0.15-2.65-0.093-0.693-0.27-1.247-0.53-1.66-0.267-0.42-0.63-0.71-1.09-0.87-0.467-0.16-1.067-0.24-1.8-0.24v0c-0.113 0-0.23 0-0.35 0-0.12 0-0.247 0.007-0.38 0.02v0l-0.1-0.71c4.64-0.733 9.753-1.1 15.34-1.1v0c2.847 0 5.833 0.1 8.96 0.3v0l0.17 0.41-2.32 6.08-0.78-0.24c0.127-0.62 0.223-1.19 0.29-1.71 0.067-0.52 0.1-1.03 0.1-1.53 0-0.493-0.067-0.96-0.2-1.4v0c-1.22-0.113-2.42-0.2-3.6-0.26-1.18-0.053-2.357-0.08-3.53-0.08v0c-2.133 0-4.223 0.097-6.27 0.29zM261.4-2.44v-15.65c0-1.093-0.053-2.007-0.16-2.74-0.107-0.727-0.293-1.31-0.56-1.75-0.267-0.44-0.637-0.75-1.11-0.93-0.473-0.18-1.297-0.26-2.47-0.24v0l-0.09-0.44c2.653-0.8 5.117-1.2 7.39-1.2v0c0.347 0.86 0.52 1.787 0.52 2.78v0 3.01l0.09 0.09c0.687-0.94 1.343-1.777 1.97-2.51 0.627-0.733 1.267-1.343 1.92-1.83 0.647-0.487 1.33-0.857 2.05-1.11 0.713-0.253 1.51-0.38 2.39-0.38v0c0.553 0 1.163 0.047 1.83 0.14v0l-1.42 5.96-0.9-0.27c0-0.24-0.017-0.573-0.05-1-0.033-0.42-0.077-0.84-0.13-1.26-0.06-0.413-0.133-0.77-0.22-1.07-0.093-0.3-0.197-0.45-0.31-0.45v0c-0.467 0-0.94 0.1-1.42 0.3-0.48 0.207-1.007 0.537-1.58 0.99-0.567 0.46-1.193 1.057-1.88 1.79-0.68 0.727-1.46 1.613-2.34 2.66v0 14.21c0 0.52 0.04 0.937 0.12 1.25 0.08 0.32 0.25 0.587 0.51 0.8 0.26 0.207 0.627 0.393 1.1 0.56 0.473 0.16 1.093 0.337 1.86 0.53v0l-0.2 0.59c-0.947-0.127-1.747-0.223-2.4-0.29-0.66-0.067-1.193-0.1-1.6-0.1v0c-0.927 0-2.01 0.13-3.25 0.39v0l-0.15-0.24c0.327-0.473 0.49-1.337 0.49-2.59zM297.17-17.65v14.89c0 0.28 0.06 0.537 0.18 0.77 0.12 0.233 0.267 0.43 0.44 0.59 0.173 0.153 0.423 0.303 0.75 0.45 0.32 0.147 0.603 0.26 0.85 0.34 0.247 0.08 0.59 0.187 1.03 0.32v0l-0.2 0.58c-1.04-0.193-2.073-0.29-3.1-0.29v0c-1.287 0-2.557 0.13-3.81 0.39v0l-0.15-0.24c0.347-0.473 0.52-1.337 0.52-2.59v0-1.61c-0.813 1.513-2.08 2.733-3.8 3.66-1.72 0.927-3.457 1.39-5.21 1.39v0c-1.873 0-3.383-0.483-4.53-1.45-1.147-0.967-1.72-2.403-1.72-4.31v0c0-1.24 0.257-2.343 0.77-3.31 0.513-0.967 1.197-1.787 2.05-2.46 0.853-0.68 1.95-1.28 3.29-1.8 1.347-0.52 2.73-0.943 4.15-1.27 1.427-0.327 3.093-0.627 5-0.9v0-2.25c0-4.473-1.767-6.71-5.3-6.71v0c-1.14 0-2.537 0.28-4.19 0.84-1.653 0.56-3.04 1.297-4.16 2.21v0l-1-1.15c1.413-1.12 3.093-2.047 5.04-2.78 1.947-0.733 3.767-1.1 5.46-1.1v0c0.747 0 1.457 0.07 2.13 0.21 0.68 0.14 1.363 0.39 2.05 0.75 0.693 0.367 1.29 0.833 1.79 1.4 0.493 0.56 0.893 1.307 1.2 2.24 0.313 0.94 0.47 2.003 0.47 3.19zM285.82-0.85v0c1.413 0 2.893-0.47 4.44-1.41 1.547-0.933 2.687-2.1 3.42-3.5v0-7.45c-4.167 0.607-7.143 1.53-8.93 2.77-1.78 1.247-2.67 3.06-2.67 5.44v0c0 1.447 0.31 2.5 0.93 3.16 0.62 0.66 1.557 0.99 2.81 0.99zM340.65-2.44v-3.1-11.21c0-1.413-0.15-2.56-0.45-3.44-0.3-0.88-0.69-1.563-1.17-2.05-0.48-0.487-1.02-0.817-1.62-0.99-0.593-0.173-1.183-0.26-1.77-0.26v0c-1.133 0-2.307 0.23-3.52 0.69-1.213 0.453-2.497 1.17-3.85 2.15v0c0.26 0.873 0.39 1.873 0.39 3v0 14.89c0 0.407 0.093 0.74 0.28 1 0.187 0.26 0.433 0.48 0.74 0.66 0.3 0.18 0.643 0.33 1.03 0.45 0.393 0.127 0.793 0.247 1.2 0.36v0l-0.2 0.58c-0.96-0.193-2.18-0.29-3.66-0.29v0c-0.927 0-2.01 0.13-3.25 0.39v0l-0.14-0.24c0.34-0.46 0.51-1.323 0.51-2.59v0-14.31c0-1.4-0.163-2.54-0.49-3.42-0.327-0.873-0.75-1.56-1.27-2.06-0.52-0.493-1.103-0.83-1.75-1.01-0.653-0.18-1.297-0.27-1.93-0.27v0c-0.733 0-1.417 0.077-2.05 0.23-0.64 0.153-1.263 0.377-1.87 0.67-0.613 0.293-1.243 0.663-1.89 1.11-0.653 0.447-1.353 0.963-2.1 1.55v0 16.61c0 0.52 0.04 0.937 0.12 1.25 0.08 0.32 0.25 0.587 0.51 0.8 0.26 0.207 0.627 0.393 1.1 0.56 0.473 0.16 1.093 0.337 1.86 0.53v0l-0.2 0.59c-0.947-0.127-1.747-0.223-2.4-0.29-0.66-0.067-1.193-0.1-1.6-0.1v0c-0.933 0-2.017 0.13-3.25 0.39v0l-0.15-0.24c0.327-0.473 0.49-1.337 0.49-2.59v0-15.65c0-1.093-0.053-2.007-0.16-2.74-0.107-0.727-0.293-1.31-0.56-1.75-0.267-0.44-0.637-0.75-1.11-0.93-0.473-0.18-1.077-0.27-1.81-0.27v0c-0.093 0-0.197 0-0.31 0-0.12 0-0.237 0.01-0.35 0.03v0l-0.09-0.44c2.653-0.8 5.117-1.2 7.39-1.2v0c0.347 0.86 0.52 1.787 0.52 2.78v0 1c0.873-0.667 1.673-1.24 2.4-1.72 0.727-0.48 1.437-0.873 2.13-1.18 0.687-0.313 1.39-0.543 2.11-0.69 0.713-0.147 1.51-0.22 2.39-0.22v0c0.633 0 1.28 0.053 1.94 0.16 0.66 0.107 1.293 0.297 1.9 0.57 0.613 0.267 1.18 0.62 1.7 1.06 0.52 0.44 0.96 1 1.32 1.68v0c0.8-0.587 1.563-1.1 2.29-1.54 0.733-0.44 1.46-0.803 2.18-1.09 0.713-0.293 1.437-0.51 2.17-0.65 0.733-0.14 1.507-0.21 2.32-0.21v0c0.893 0 1.783 0.117 2.67 0.35 0.887 0.24 1.69 0.653 2.41 1.24 0.713 0.587 1.293 1.38 1.74 2.38 0.453 1 0.68 2.273 0.68 3.82v0 14.89c0 0.407 0.093 0.74 0.28 1 0.187 0.26 0.43 0.48 0.73 0.66 0.3 0.18 0.647 0.33 1.04 0.45 0.387 0.127 0.783 0.247 1.19 0.36v0l-0.19 0.58c-0.96-0.193-2.183-0.29-3.67-0.29v0c-0.927 0-2.007 0.13-3.24 0.39v0l-0.15-0.24c0.327-0.473 0.49-1.337 0.49-2.59zM352.15-11.89v0c0-1.727 0.283-3.4 0.85-5.02 0.573-1.62 1.387-3.06 2.44-4.32 1.06-1.26 2.343-2.27 3.85-3.03 1.507-0.753 3.197-1.13 5.07-1.13v0c1.167 0 2.273 0.2 3.32 0.6 1.04 0.4 1.947 1.017 2.72 1.85 0.773 0.84 1.383 1.917 1.83 3.23 0.447 1.307 0.67 2.863 0.67 4.67v0l-0.95 0.88h-15.94c-0.033 0.273-0.05 0.543-0.05 0.81 0 0.26 0 0.52 0 0.78v0c0 1.773 0.207 3.383 0.62 4.83 0.413 1.447 0.973 2.687 1.68 3.72 0.713 1.033 1.55 1.837 2.51 2.41 0.96 0.567 1.977 0.85 3.05 0.85v0c0.68 0 1.377-0.053 2.09-0.16 0.707-0.1 1.397-0.267 2.07-0.5 0.673-0.227 1.33-0.517 1.97-0.87 0.633-0.36 1.217-0.793 1.75-1.3v0l1.01 1.05c-1.287 1.273-2.687 2.18-4.2 2.72-1.513 0.547-3.263 0.82-5.25 0.82v0c-1.567 0-3.03-0.3-4.39-0.9-1.353-0.607-2.527-1.47-3.52-2.59-0.993-1.12-1.777-2.477-2.35-4.07-0.567-1.587-0.85-3.363-0.85-5.33zM363.82-23.71v0c-2.527 0-4.373 0.657-5.54 1.97-1.173 1.307-1.883 3.19-2.13 5.65v0h13.6c-0.127-2.667-0.723-4.603-1.79-5.81-1.067-1.207-2.447-1.81-4.14-1.81zM394.73-5.69v0c0 1.173-0.237 2.183-0.71 3.03-0.473 0.847-1.103 1.543-1.89 2.09-0.793 0.54-1.713 0.937-2.76 1.19-1.053 0.253-2.157 0.38-3.31 0.38v0c-2.8 0-5.43-0.587-7.89-1.76v0c0.313-1.073 0.623-2.07 0.93-2.99 0.313-0.92 0.63-1.77 0.95-2.55v0l0.71 0.25c-0.147 0.713-0.22 1.4-0.22 2.06 0 0.66 0.027 1.257 0.08 1.79v0c0.5 0.26 0.97 0.483 1.41 0.67 0.44 0.187 0.88 0.343 1.32 0.47 0.44 0.12 0.913 0.21 1.42 0.27 0.5 0.053 1.083 0.08 1.75 0.08v0c0.993 0 1.817-0.063 2.47-0.19 0.653-0.133 1.163-0.357 1.53-0.67 0.36-0.32 0.613-0.743 0.76-1.27 0.147-0.533 0.22-1.19 0.22-1.97v0c0-0.6-0.1-1.167-0.3-1.7-0.207-0.527-0.557-1.05-1.05-1.57-0.5-0.52-1.16-1.06-1.98-1.62-0.82-0.567-1.84-1.183-3.06-1.85v0c-1.973-1.173-3.463-2.34-4.47-3.5-1.007-1.167-1.51-2.417-1.51-3.75v0c0-1.06 0.22-2 0.66-2.82 0.433-0.82 1.03-1.51 1.79-2.07 0.753-0.567 1.637-0.99 2.65-1.27 1.007-0.287 2.073-0.43 3.2-0.43v0c0.567 0 1.163 0.04 1.79 0.12 0.627 0.08 1.233 0.2 1.82 0.36 0.587 0.153 1.137 0.34 1.65 0.56 0.513 0.22 0.957 0.467 1.33 0.74v0c-0.52 2.133-1.157 4.007-1.91 5.62v0l-0.7-0.27c0.033-0.473 0.057-1.057 0.07-1.75 0.013-0.687 0.02-1.503 0.02-2.45v0c-1.053-0.833-2.517-1.25-4.39-1.25v0c-0.927 0-1.713 0.057-2.36 0.17-0.64 0.12-1.157 0.317-1.55 0.59-0.387 0.28-0.667 0.66-0.84 1.14-0.173 0.48-0.26 1.083-0.26 1.81v0c0 0.54 0.073 1.043 0.22 1.51 0.147 0.46 0.41 0.913 0.79 1.36 0.373 0.447 0.88 0.903 1.52 1.37 0.647 0.467 1.473 0.967 2.48 1.5v0c1.58 0.867 2.86 1.623 3.84 2.27 0.987 0.653 1.76 1.293 2.32 1.92 0.567 0.627 0.95 1.28 1.15 1.96 0.207 0.687 0.31 1.493 0.31 2.42zM420.85-32.59v31.1l8.11-0.27c1.187-0.033 2.193-0.167 3.02-0.4 0.833-0.233 1.55-0.607 2.15-1.12 0.6-0.513 1.093-1.053 1.48-1.62 0.38-0.56 0.807-1.31 1.28-2.25v0l0.71 0.29-2.39 6.52-0.42 0.34h-17.24c-0.307-0.687-0.46-1.483-0.46-2.39v0-25.71c0-2.293-0.273-3.84-0.82-4.64-0.547-0.8-1.707-1.133-3.48-1v0l-0.09-0.46c2.68-0.8 5.233-1.2 7.66-1.2v0c0.327 0.893 0.49 1.83 0.49 2.81zM445.48-2.44v-15.65c0-2.313-0.27-3.863-0.81-4.65-0.547-0.793-1.707-1.13-3.48-1.01v0l-0.1-0.44c2.687-0.8 5.153-1.2 7.4-1.2v0c0.34 0.847 0.51 1.773 0.51 2.78v0 18.22c0 1.28 0.3 2.23 0.9 2.85 0.607 0.62 1.673 1.067 3.2 1.34v0l-0.19 0.59c-1.873-0.26-3.32-0.39-4.34-0.39-1.013 0-2.157 0.13-3.43 0.39v0l-0.14-0.24c0.32-0.473 0.48-1.337 0.48-2.59zM442.99-34.45v0c1.547-0.893 3.297-1.64 5.25-2.24v0c0 1.347 0.22 2.68 0.66 4v0l-0.32 0.44c-1.547 0.1-3.157 0.53-4.83 1.29v0c-0.407-1.12-0.66-2.283-0.76-3.49zM463.5-36.21v15.02c1.433-1.467 2.873-2.533 4.32-3.2 1.453-0.667 3.05-1 4.79-1v0c1.46 0 2.807 0.337 4.04 1.01 1.227 0.68 2.24 1.573 3.04 2.68 0.793 1.107 1.41 2.353 1.85 3.74 0.44 1.393 0.66 2.83 0.66 4.31v0c0 4.367-1.15 7.813-3.45 10.34-2.307 2.533-5.64 3.8-10 3.8v0c-1.74 0-3.44-0.147-5.1-0.44v0h-0.05c-1.613 0-2.917 0.17-3.91 0.51v0l-0.19-0.41c0.207-0.313 0.34-0.66 0.4-1.04 0.06-0.38 0.09-1.067 0.09-2.06v0-28.74c0-2.147-0.233-3.627-0.7-4.44-0.467-0.813-1.43-1.22-2.89-1.22v0h-0.71l-0.1-0.44c2.687-0.8 5.153-1.2 7.4-1.2v0c0.34 0.847 0.51 1.773 0.51 2.78zM463.5-19.24v0 16.43c0.78 0.427 1.817 0.777 3.11 1.05 1.293 0.28 2.593 0.42 3.9 0.42v0c1.267 0 2.37-0.177 3.31-0.53 0.933-0.347 1.683-0.817 2.25-1.41 0.573-0.593 1.033-1.373 1.38-2.34 0.353-0.96 0.59-1.967 0.71-3.02 0.12-1.06 0.18-2.297 0.18-3.71v0c0-3.713-0.627-6.527-1.88-8.44-1.253-1.913-2.913-2.87-4.98-2.87v0c-1.28 0-2.617 0.38-4.01 1.14-1.393 0.753-2.717 1.847-3.97 3.28zM490.33-2.44v-15.65c0-1.093-0.053-2.007-0.16-2.74-0.107-0.727-0.293-1.31-0.56-1.75-0.267-0.44-0.637-0.75-1.11-0.93-0.473-0.18-1.293-0.26-2.46-0.24v0l-0.1-0.44c2.653-0.8 5.117-1.2 7.39-1.2v0c0.347 0.86 0.52 1.787 0.52 2.78v0 3.01l0.1 0.09c0.68-0.94 1.333-1.777 1.96-2.51 0.627-0.733 1.267-1.343 1.92-1.83 0.647-0.487 1.33-0.857 2.05-1.11 0.713-0.253 1.51-0.38 2.39-0.38v0c0.553 0 1.163 0.047 1.83 0.14v0l-1.41 5.96-0.91-0.27c0-0.24-0.017-0.573-0.05-1-0.033-0.42-0.077-0.84-0.13-1.26-0.06-0.413-0.133-0.77-0.22-1.07-0.087-0.3-0.19-0.45-0.31-0.45v0c-0.467 0-0.94 0.1-1.42 0.3-0.48 0.207-1.007 0.537-1.58 0.99-0.567 0.46-1.193 1.057-1.88 1.79-0.68 0.727-1.46 1.613-2.34 2.66v0 14.21c0 0.52 0.04 0.937 0.12 1.25 0.08 0.32 0.25 0.587 0.51 0.8 0.26 0.207 0.627 0.393 1.1 0.56 0.473 0.16 1.093 0.337 1.86 0.53v0l-0.2 0.59c-0.94-0.127-1.74-0.223-2.4-0.29-0.66-0.067-1.193-0.1-1.6-0.1v0c-0.927 0-2.01 0.13-3.25 0.39v0l-0.15-0.24c0.327-0.473 0.49-1.337 0.49-2.59zM526.1-17.65v14.89c0 0.28 0.06 0.537 0.18 0.77 0.12 0.233 0.267 0.43 0.44 0.59 0.173 0.153 0.423 0.303 0.75 0.45 0.32 0.147 0.603 0.26 0.85 0.34 0.247 0.08 0.59 0.187 1.03 0.32v0l-0.2 0.58c-1.04-0.193-2.073-0.29-3.1-0.29v0c-1.287 0-2.557 0.13-3.81 0.39v0l-0.15-0.24c0.347-0.473 0.52-1.337 0.52-2.59v0-1.61c-0.813 1.513-2.08 2.733-3.8 3.66-1.713 0.927-3.45 1.39-5.21 1.39v0c-1.873 0-3.383-0.483-4.53-1.45-1.147-0.967-1.72-2.403-1.72-4.31v0c0-1.24 0.257-2.343 0.77-3.31 0.513-0.967 1.197-1.787 2.05-2.46 0.853-0.68 1.95-1.28 3.29-1.8 1.347-0.52 2.73-0.943 4.15-1.27 1.427-0.327 3.093-0.627 5-0.9v0-2.25c0-4.473-1.767-6.71-5.3-6.71v0c-1.14 0-2.537 0.28-4.19 0.84-1.653 0.56-3.04 1.297-4.16 2.21v0l-1-1.15c1.413-1.12 3.093-2.047 5.04-2.78 1.947-0.733 3.767-1.1 5.46-1.1v0c0.747 0 1.457 0.07 2.13 0.21 0.68 0.14 1.363 0.39 2.05 0.75 0.693 0.367 1.29 0.833 1.79 1.4 0.493 0.56 0.893 1.307 1.2 2.24 0.313 0.94 0.47 2.003 0.47 3.19zM514.75-0.85v0c1.413 0 2.893-0.47 4.44-1.41 1.547-0.933 2.687-2.1 3.42-3.5v0-7.45c-4.167 0.607-7.143 1.53-8.93 2.77-1.78 1.247-2.67 3.06-2.67 5.44v0c0 1.447 0.31 2.5 0.93 3.16 0.62 0.66 1.557 0.99 2.81 0.99zM537.23-2.44v-15.65c0-1.093-0.053-2.007-0.16-2.74-0.107-0.727-0.293-1.31-0.56-1.75-0.267-0.44-0.637-0.75-1.11-0.93-0.473-0.18-1.297-0.26-2.47-0.24v0l-0.09-0.44c2.653-0.8 5.117-1.2 7.39-1.2v0c0.347 0.86 0.52 1.787 0.52 2.78v0 3.01l0.09 0.09c0.687-0.94 1.343-1.777 1.97-2.51 0.627-0.733 1.267-1.343 1.92-1.83 0.647-0.487 1.33-0.857 2.05-1.11 0.713-0.253 1.51-0.38 2.39-0.38v0c0.553 0 1.163 0.047 1.83 0.14v0l-1.42 5.96-0.9-0.27c0-0.24-0.017-0.573-0.05-1-0.033-0.42-0.077-0.84-0.13-1.26-0.06-0.413-0.133-0.77-0.22-1.07-0.093-0.3-0.197-0.45-0.31-0.45v0c-0.467 0-0.94 0.1-1.42 0.3-0.48 0.207-1.007 0.537-1.58 0.99-0.567 0.46-1.193 1.057-1.88 1.79-0.68 0.727-1.46 1.613-2.34 2.66v0 14.21c0 0.52 0.04 0.937 0.12 1.25 0.08 0.32 0.25 0.587 0.51 0.8 0.26 0.207 0.627 0.393 1.1 0.56 0.473 0.16 1.093 0.337 1.86 0.53v0l-0.2 0.59c-0.947-0.127-1.747-0.223-2.4-0.29-0.66-0.067-1.193-0.1-1.6-0.1v0c-0.927 0-2.01 0.13-3.25 0.39v0l-0.15-0.24c0.327-0.473 0.49-1.337 0.49-2.59zM577-25.15l0.29 0.49-10.4 26.95c-0.433 1.16-0.81 2.113-1.13 2.86-0.32 0.747-0.69 1.523-1.11 2.33-0.427 0.807-0.837 1.463-1.23 1.97-0.4 0.507-0.867 0.967-1.4 1.38-0.527 0.413-1.1 0.733-1.72 0.96v0c-2.587 0.1-4.857-0.777-6.81-2.63v0c0.88-1.08 2.1-2 3.66-2.76v0l0.3 0.29c0.647 1.513 1.697 2.603 3.15 3.27v0c0.7-0.567 1.42-1.507 2.16-2.82 0.74-1.307 1.653-3.433 2.74-6.38v0l-8.69-20.56c-0.453-1.153-0.96-1.983-1.52-2.49-0.567-0.507-1.147-0.75-1.74-0.73-0.593 0.013-1.273 0.07-2.04 0.17v0l-0.26-0.49c2.733-1.367 5.133-2.05 7.2-2.05v0l7.35 17.89c0.32 0.787 0.7 2.287 1.14 4.5v0h0.42c0.78-2.587 1.177-3.907 1.19-3.96v0l5.45-15.6c0.213-0.587-0.03-1.007-0.73-1.26-0.7-0.247-1.76-0.307-3.18-0.18v0l-0.14-0.61c1.38-0.273 3.73-0.453 7.05-0.54z" fill="#2257bf" fill-rule="nonzero" stroke="none" stroke-width="1" stroke-linecap="butt" stroke-linejoin="miter" stroke-miterlimit="10" stroke-dasharray="" stroke-dashoffset="0" font-family="none" font-weight="none" font-size="none" text-anchor="none" style="mix-blend-mode: normal" data-fill-palette-color="secondary" id="text-1"></path></g></g><g transform="matrix(1,0,0,1,26.086666011993344,33.04170368793858)"><svg viewBox="0 0 281.40957797601334 173.04" height="173.04" width="281.40957797601334"><g><svg viewBox="0 0 281.40957797601334 173.04" height="173.04" width="281.40957797601334"><g><svg viewBox="0 0 316.416 194.56560446093619" height="173.04" width="281.40957797601334"><g transform="matrix(1,0,0,1,0,120.24934914178723)"><svg viewBox="0 0 316.416 74.31625531914894" height="74.31625531914894" width="316.416"><g id="textblocktransform"><svg viewBox="0 0 316.416 74.31625531914894" height="74.31625531914894" width="316.416" id="textblock"><g><svg viewBox="0 0 316.416 74.31625531914894" height="74.31625531914894" width="316.416"><g transform="matrix(1,0,0,1,0,0)"><svg width="316.416" viewBox="0 -43.65 242.04 56.849999999999994" height="74.31625531914894" data-palette-color="#dabd00"><path d="M59.75-37.75L55.4-34.35 43.4-1.6 38.2 0.95 30.25-22.6 22.8-1.6 17.6 0.95 4.75-34.45 0-37.3 1-39.3 14.7-39.3 14.7-37.75 11.05-35 21.45-5.7 28.9-26.5 26.2-34.5 21.6-37.3 22.6-39.3 37.3-39.3 37.3-37.75 32.85-34.3 42.15-5.8 52.45-34.3 43.55-37.3 44.55-39.3 59.75-39.3 59.75-37.75ZM74.3-27.05Q77.6-27.05 80.22-25.33 82.85-23.6 84.32-20.65 85.8-17.7 85.8-14.15L85.8-14.15Q85.8-10.3 83.45-6.93 81.1-3.55 77.57-1.53 74.05 0.5 70.75 0.5L70.75 0.5Q67.45 0.5 64.82-1.23 62.2-2.95 60.72-5.9 59.25-8.85 59.25-12.4L59.25-12.4Q59.25-16.25 61.6-19.63 63.95-23 67.47-25.03 71-27.05 74.3-27.05L74.3-27.05ZM71.4-22.85Q65.75-22.85 65.75-14.8L65.75-14.8Q65.75-10.05 67.8-6.88 69.85-3.7 73.65-3.7L73.65-3.7Q79.3-3.7 79.3-11.8L79.3-11.8Q79.3-16.5 77.25-19.68 75.2-22.85 71.4-22.85L71.4-22.85ZM107.85-27.05Q111.15-27.05 113.77-25.33 116.4-23.6 117.87-20.65 119.35-17.7 119.35-14.15L119.35-14.15Q119.35-10.3 117-6.93 114.65-3.55 111.12-1.53 107.6 0.5 104.3 0.5L104.3 0.5Q101 0.5 98.37-1.23 95.75-2.95 94.27-5.9 92.8-8.85 92.8-12.4L92.8-12.4Q92.8-16.25 95.15-19.63 97.5-23 101.02-25.03 104.55-27.05 107.85-27.05L107.85-27.05ZM104.95-22.85Q99.3-22.85 99.3-14.8L99.3-14.8Q99.3-10.05 101.35-6.88 103.4-3.7 107.2-3.7L107.2-3.7Q112.85-3.7 112.85-11.8L112.85-11.8Q112.85-16.5 110.8-19.68 108.75-22.85 104.95-22.85L104.95-22.85ZM139.54-2L138.54 0 124.59 0 124.59-1.55 129.04-5.05 129.04-35.8 124.59-38.9 124.59-40.45 133.14-43.65 135.04-43.65 135.04-3.75 139.54-2ZM157.99-2L156.99 0 143.04 0 143.04-1.55 147.49-5.05 147.49-35.8 143.04-38.9 143.04-40.45 151.59-43.65 153.49-43.65 153.49-3.75 157.99-2ZM188.89-26.55L188.89-25 176.24 0 165.84 13.2 163.94 11.7Q166.79 8.65 168.26 6.35 169.74 4.05 170.34 1.73 170.94-0.6 170.94-3.8L170.94-3.8 164.64-19.05 159.99-21.75 159.99-23.3 168.54-27.5 170.44-19.95 176.54-5.05 183.59-19.7 176.94-24.55 177.94-26.55 188.89-26.55ZM242.04-1.95L241.04 0.05 225.84 0.05 225.84-1.5 230.54-5.2 230.54-32.85 217.19 0.05 214.44 0.05 201.19-33.2 201.19-4.6 206.44-1.95 205.44 0.05 193.74 0.05 193.74-1.5 198.44-5.2 198.44-34.5 193.24-37.3 194.24-39.3 205.09-39.3 217.59-7.9 230.04-39.3 241.54-39.3 241.54-37.75 236.79-34.05 236.79-3.8 242.04-1.95Z" opacity="1" transform="matrix(1,0,0,1,0,0)" fill="#dabd00" class="wordmark-text-0" data-fill-palette-color="primary" id="text-0"></path></svg></g></svg></g></svg></g></svg></g><g transform="matrix(1,0,0,1,102.01195342947577,0)"><svg viewBox="0 0 112.39209314104846 102.70506485106384" height="102.70506485106384" width="112.39209314104846"><g><svg xmlns="http://www.w3.org/2000/svg" xmlns:xlink="http://www.w3.org/1999/xlink" version="1.1" x="0" y="0" viewBox="5.500000000000002 5.282308546376021 90.00000000000001 82.24293700977263" style="enable-background:new 0 0 100 100;" xml:space="preserve" height="102.70506485106384" width="112.39209314104846" class="icon-icon-0" data-fill-palette-color="accent" id="icon-0"><path d="M66 63.7c0.4 7.1 0.2 13.3-0.6 19 1.7 0 3.8-0.4 6.7-1.7-0.8-6.4-2.6-12.3-5.1-17.6C66.6 63.5 66.3 63.6 66 63.7z" fill="#dabd00" data-fill-palette-color="accent"></path><path d="M72.3 51.9c-0.1-0.1-0.2-0.1-0.3-0.1-0.1 0-0.1 0-0.2 0-0.2 0.1-0.2 0.3-0.1 0.4 0.1 0.1 0.1 0.2 0.2 0.3 0.3 0.5 0.5 1.1 0.6 1.7 0.1 0.3 0.1 0.6 0.1 0.9 0 0.1 0 0.3 0 0.4 0 0.1 0 0.1 0 0.2 0 0 0 0.1 0 0.1 0 0 0 0.1 0 0.1 0 0-0.1 0.1-0.1 0.1-0.3 0.5-0.7 0.9-1.2 1.3-0.3 0.2-0.5 0.3-0.8 0.4-0.3 0.1-0.6 0.1-0.8 0.1 0 0-0.1 0-0.1 0-0.3 0-0.6-0.1-1-0.1-0.3-0.1-0.6-0.2-0.9-0.4 0 0 0 0 0 0-0.5-0.3-1.1-0.6-1.5-1 0-0.1 0-0.1 0-0.2-0.1-0.6-0.2-1.3-0.2-2-0.1-0.7-0.1-1.3-0.1-2 0-0.7 0.1-1.3 0.1-2 0-0.1-0.1-0.3-0.2-0.3 0 0 0 0-0.1 0-0.1 0-0.3 0.1-0.3 0.2-0.2 1.1-0.3 2.2-0.4 3.3 0 1.1 0 2.2 0.1 3.3 0 0 0 0.2 0 0.2l0.2 0.1c0.1 0.1 0.3 0.2 0.4 0.3 0.2 0.2 0.4 0.3 0.6 0.5 0.3 0.2 0.5 0.4 0.8 0.5 0.4 0.2 0.7 0.3 1.1 0.4 0.4 0.1 0.8 0.2 1.2 0.2 0.1 0 0.1 0 0.1 0 0.4 0 0.8-0.1 1.2-0.2 0.4-0.1 0.8-0.3 1.1-0.6 0.7-0.5 1.2-1.1 1.6-1.8l0 0 0.1-0.1 0-0.2C73.7 54.5 73.2 53 72.3 51.9z" fill="#dabd00" data-fill-palette-color="accent"></path><path d="M22.8 67.7l0.6 16.2c3 0.8 5.1 1.1 9.2 0.4 0.3-4.4 0.1-8.6-0.8-12.4C29.6 71.2 27.1 70 22.8 67.7z" fill="#dabd00" data-fill-palette-color="accent"></path><path d="M77.7 13.1c-0.9-1.7-1.6-3.1-2.2-4-0.1-0.2-0.2-0.4-0.3-0.5-0.1-0.2-0.2-0.3-1.3-1.3l-0.9-0.8c-1.1-1-1.2-1.1-1.3-1.1-0.7-0.3-1.2 0-2.6 0.6-0.3 0.1-0.6 0.3-1 0.4-0.8 0.3-2.1 0.9-3.4 1.3-1.4 0.4-2.4 0.5-3.2 0.6-1.1 0.1-1.8 0.2-2.7 1-0.6 0.6-1 1.2-1.3 1.6-0.1 0.2-0.2 0.3-0.2 0.4-0.8 0.9-0.8 2.9-0.7 3.5 0.1-0.2 0.4-0.5 1-1.5 0.1-0.2 0.3-0.4 0.6-0.4 0.2 0 0.5 0.1 0.6 0.3 0.4 0.5 0.9 1.3 1.1 1.9 0 0.1 0.1 0.1 0.1 0.1 0 0 0.1 0 0.1 0 0.4-0.4 0.8-0.9 1-1.4 0.1-0.2 0.3-0.4 0.5-0.4 0.2 0 0.4 0 0.6 0.2 0.5 0.5 1 0.9 1.7 1.1 0 0 0.1 0 0.1 0 0.5-0.8 1.2-1.4 2.1-1.7 0.3-0.1 0.7 0 1 0.3 0.8 1 1.4 2.1 1.7 3.4 0 0 0 0.1 0.1 0.1 1-0.6 1.7-1.7 2.3-3.3 0.1-0.2 0.2-0.3 0.4-0.3 0 0 0 0 0 0 0.2 0 0.3 0.1 0.4 0.3 0.4 1.5 1.1 2.9 2.1 3.9 0.1-1.7 0.4-3.2 1-4.5 0.1-0.2 0.2-0.3 0.3-0.4 0.7 0.2 1.4 0.6 2.2 1.2C77.5 13.9 77.9 13.5 77.7 13.1z" fill="#dabd00" data-fill-palette-color="accent"></path><path d="M94.5 63.6c-1.2-0.8-2.5 1.1-5.4 1.3-2.7 0.2-4.9-1.1-5.5-1.5C83 63 82.5 62.5 82 62c0.1-0.1 0.1-0.1 0.2-0.2 1.3 0 2.6-0.3 3.9-0.7 2.5-1 4.7-3 6.4-5.6 1.9-3.1 2.9-6.9 2.9-10.9 0-1.8-0.3-3.7-0.7-5.6-0.3-1.1-0.8-1.8-1.4-1.7-0.4 0.1-0.8 0.4-0.7 1.6 0.1 1.8 0.1 3.5-0.2 5.1-0.5 3.5-2 6.6-4.1 8.8 0.5-1.9 0.8-4 0.8-6.1 0-1.8-0.3-3.7-0.7-5.6-0.3-1.2-0.8-1.8-1.4-1.7-0.4 0.1-0.8 0.4-0.7 1.6 0.1 1.8 0.1 3.5-0.2 5.1-0.5 3.6-2.1 6.8-4.3 9 0 0 0.1-0.1 0.1-0.1-0.8-0.3-1.6-1-1.9-1.7L79.9 53c-0.1-0.4-0.1-0.8-0.3-1.2-0.1-0.4-0.3-0.7-0.4-1-0.2-0.3-1.5-1.3-1.5-1.3 0.1-2.1 0.6-4.2 0.7-6.3 0.3-3.7 0.6-7.3 0.5-11 0-1.9-0.1-3.9 0-5.9h0c0 0 0 0 0 0 0.4 0 0.8-0.2 1-0.4 0.5-0.4 0.8-0.9 0.9-1.2 0-0.2 0.1-0.3 0.1-0.4 0-0.1 0-0.1 0-0.1l0 0c0 0 0-0.8-0.5-1.9-0.2-0.3-0.3-0.6-0.7-0.8 0 0-0.1 0-0.1 0 0.2-1.2 0.4-2.5-0.1-3.6 0 0 0-0.1 0-0.1-0.4-0.9-1.2-1.6-1.8-2.5-0.2-0.3-0.4-0.6-0.5-0.9-0.6-0.4-1.2-0.7-1.7-0.8 0 0-0.1 0-0.1 0-0.6 1.1-0.9 2.4-1 4 0 0.2-0.1 0.4-0.3 0.4-0.1 0-0.1 0-0.2 0-0.1 0-0.2 0-0.3-0.1-1-0.9-1.7-2.1-2.2-3.4-0.6 1.3-1.3 2.3-2.3 2.8-0.2 0.1-0.3 0.1-0.5 0-0.2-0.1-0.3-0.2-0.4-0.4-0.3-1.1-0.8-2-1.6-2.8-0.1-0.1-0.3-0.2-0.4-0.1-0.7 0.3-1.4 0.7-1.8 1.3-0.1 0.2-0.4 0.3-0.6 0.3-0.8-0.2-1.4-0.5-2-1.1-0.1-0.1-0.1-0.1-0.2 0 0 0-0.1 0-0.1 0.1-0.3 0.6-0.7 1-1.1 1.4-0.2 0.1-0.4 0.2-0.6 0.1-0.2-0.1-0.4-0.2-0.4-0.4-0.1-0.4-0.5-0.9-1-1.5 0-0.1-0.1-0.1-0.2-0.1-0.1 0-0.1 0-0.2 0.1-1 1.5-1.3 1.6-1.4 1.6 0 0 0 0 0 0-0.2 0.9-0.9 1.5-2.2 2.4-4 2.7-7.7 4.6-12.6 4.5-2.8-0.1-5.6-0.5-8.3-0.4-4.8 0.2-9.5 1.9-13.9 4-3.2 1.5-6.3 3.4-8.6 6-2.7 3.1-4.1 7.1-4.7 11.2-0.3 2.4-0.8 4.9-0.8 7.3 0 0.4 0.4 0.6 0.7 0.4L8.5 50c0.2-0.1 0.5 0 0.7 0.2l1 1.7c0.1 0.2 0.4 0.3 0.7 0.2l4.4-2c0.2-0.1 0.4-0.1 0.6 0.1l4.6 4c0.1 0.1 0.1 0.2 0 0.2-0.1 0.1-0.2 0.1-0.2 0l-4.5-3.1c-0.1-0.1-0.3-0.1-0.5 0l-4.7 2.1c-0.2 0.1-0.5 0-0.7-0.2l-1-1.6c-0.1-0.2-0.4-0.3-0.7-0.2l-2 1c0.1 1.2 0.3 2.4 0.3 3.5-0.1 1.4-0.7 2.7-0.9 4.1-0.2 1.2 0 2.6 0.9 3.5 0-1.4 0.5-2.8 1.4-4 0.1-0.1 0.1-0.2 0.3-0.2 0.3-0.1 0.4 0.3 0.5 0.6 0.7 4.2 1.4 8.4 1.8 12.6l1.4 2 1.1-4.7c0-0.2 0.2-0.3 0.3-0.2 0.1 0 0.2 0.1 0.2 0.2l1.1 2.5 1.5-2.5c0.1-0.1 0.2-0.1 0.3-0.1 0.1 0.1 0.1 0.2 0.1 0.3l-1.6 3.3c-0.1 0.2-0.3 0.2-0.5 0.2-0.1 0-0.1-0.1-0.2-0.2l0 0-0.9-2.3-0.8 4.9c0 0.3-0.3 0.5-0.6 0.4-0.1 0-0.3-0.1-0.3-0.2l0 0-1-1.5c0.1 1.5 0.2 3.1 0.3 4.6 0 0.6-0.2 6.4 0.1 6.5 4.5 1.9 8.8 2.7 12.1 0.5l-0.7-19.3c6.9 3.6 9.4 4.9 13.2 5 3.9 0.1 8.3-1.1 8.8-1.2 2.5-0.7 4.3-1.5 5-1.8 2.9-1.3 3.1-2 4.6-2.8 0.1 2.7 0.1 5.4-0.1 8.1l1.4 1.9 1.3-5.4c0-0.2 0.2-0.3 0.4-0.3 0.1 0 0.2 0.1 0.2 0.2l1.3 2.9 1.8-2.9c0.1-0.1 0.2-0.1 0.3-0.1 0.1 0.1 0.1 0.2 0.1 0.3l-1.9 3.8c-0.1 0.2-0.3 0.3-0.6 0.2-0.1 0-0.2-0.1-0.2-0.2l0 0-1.1-2.6L56 77.6c-0.1 0.3-0.4 0.5-0.7 0.5-0.2 0-0.3-0.1-0.4-0.2l0 0L53.7 76c-0.2 2.1-0.5 4.2-0.9 6.3 4.1 1.6 8.2 2.2 12 0.4 0.9-6.1 1.1-12.6 0.6-19.4 0.1 0 0.1 0 0.2 0 0.7-0.2 1.3-0.4 1.9-0.8 0.3-0.2 0.8-0.8 1.2-0.9 0.1 0 0.2 0 0.3 0 0.6 0.4 1.2 0.8 1.8 1.1 0.2 0.1 0.4 0.2 0.5 0.4 0.1 0.1 0.3 0.3 0.4 0.5 0.9 1.4 1.8 2.8 2.9 4.1 1.8 2.2 4 3.3 6.7 4.3 1.2 0.4 3.6 1.2 6.6 1 1.3-0.1 3.1-0.2 4.8-1.4 0.5-0.3 1.4-1 2.1-2.2 0.7-1.2 0.7-2.4 0.7-2.9C95.4 65.6 95.3 64.1 94.5 63.6zM79.5 21.4C79.5 21.4 79.5 21.4 79.5 21.4 79.5 21.4 79.5 21.4 79.5 21.4 79.5 21.4 79.5 21.4 79.5 21.4zM78.2 23.9l0-0.1c0-0.2 0.2-0.5 0.2-0.7 0.1-0.2 0.2-0.4 0.3-0.5 0.1 0 0.1-0.1 0.1-0.1-0.1 0 0.2 0 0.1 0 0 0 0 0 0.1 0 0.2 0 0.4 0.2 0.5 0.3 0.3 0.3 0.5 0.7 0.5 1 0.1 0.3 0.1 0.4 0.1 0.4 0 0 0 0 0 0.1 0 0.1 0 0.1-0.1 0.3-0.1 0.2-0.3 0.6-0.7 0.7-0.2 0.1-0.4 0.1-0.6 0-0.3-0.1-0.4-0.2-0.5-0.3-0.1-0.1-0.2-0.3-0.2-0.5 0-0.1 0-0.2 0-0.3C78.1 24.2 78.2 24 78.2 23.9zM38.9 60.9l-2.5 3.7c-0.1 0.2-0.5 0.3-0.7 0.1-0.1 0-0.1-0.1-0.1-0.1l0 0L34.5 63l-1.9 3.8c-0.1 0.3-0.4 0.4-0.7 0.2-0.1-0.1-0.2-0.2-0.3-0.3l-2.1-6.8-2.9 3.4 0 0c-0.2 0.2-0.5 0.2-0.7 0.1-0.1-0.1-0.1-0.1-0.1-0.2l-1.5-4.2c0-0.1 0-0.2 0.1-0.3 0.1 0 0.2 0 0.3 0.1l1.6 3.3 3-3.5c0.2-0.2 0.5-0.2 0.7-0.1 0.1 0.1 0.1 0.1 0.2 0.2l2 6.5 1.7-3.4c0.1-0.3 0.4-0.4 0.7-0.2 0.1 0 0.1 0.1 0.2 0.2l1.2 1.7 2.5-2.9c0.1-0.1 0.2-0.1 0.3 0C38.9 60.6 38.9 60.8 38.9 60.9zM45.9 45.2c-0.1 0.4-0.5 0.5-0.9 0.4-0.1 0-0.2-0.1-0.2-0.1l0 0-2-1.7-1.3 5.7c-0.1 0.4-0.5 0.6-0.8 0.5-0.2 0-0.4-0.2-0.4-0.3l-5.1-8.4-2.8 5.4 0 0c-0.2 0.3-0.6 0.5-0.9 0.3-0.1-0.1-0.2-0.1-0.3-0.2l-3.3-5.2c-0.1-0.1-0.1-0.3 0.1-0.4 0.1-0.1 0.3-0.1 0.4 0.1l3.3 3.9 2.9-5.6c0.2-0.3 0.6-0.5 1-0.3 0.1 0.1 0.2 0.2 0.3 0.3l4.8 8 1.2-5.1c0.1-0.4 0.5-0.6 0.8-0.5 0.1 0 0.2 0.1 0.3 0.2l2.2 1.9 2.4-4.6c0.1-0.2 0.3-0.2 0.4-0.1 0.1 0.1 0.2 0.2 0.2 0.4L45.9 45.2zM57.3 58.6c-0.1 0.1-0.3 0.1-0.4 0.1l-1.2-0.7c0 0.9-0.1 1.9-0.1 2.8l0 1.9 0 0.5c0 0.1 0 0.2 0 0.2l0 0 0 0c0 0 0 0.1 0 0.1 0 0.1-0.1 0.2-0.2 0.2-0.1 0-0.1 0-0.2 0-0.2-0.1-0.1-0.1-0.2-0.1 0 0-0.1-0.1-0.1-0.1-0.2-0.3-0.4-0.6-0.5-0.8-0.6-1.1-1.2-2.2-1.7-3.3-0.3-0.6-0.7-1.3-1-1.9l-0.7 4c0.2 0.2 0.1 0.4 0 0.6-0.2 0.2-0.4 0.1-0.6 0L50 61.7l-1.5-1.7c-0.1-0.1-0.1-0.3 0-0.4 0.1-0.1 0.2-0.1 0.3 0l1.1 0.8 0.8-4.7c0-0.3 0.3-0.5 0.6-0.4 0.2 0 0.3 0.1 0.4 0.3l0 0c0.9 2.3 1.9 4.5 3.1 6.7 0 0 0 0.1 0.1 0.1l0-1.7c0-1.2-0.1-2.5-0.2-3.7l0 0 0 0c0-0.3 0.2-0.5 0.5-0.5 0.1 0 0.3 0 0.4 0.1l1.7 1.5C57.4 58.2 57.4 58.4 57.3 58.6zM62.3 35c0 0 0 0.7 0 1.8 0 0.3 0 0.6 0 0.9l0 0.1 0 0.1 0 0.1c0 0.1-0.1 0.2-0.2 0.3-0.1 0.2-0.5 0.2-0.6 0.1l-0.1 0-0.1-0.1c-0.2-0.1-0.3-0.2-0.5-0.3-0.1-0.1-0.3-0.2-0.5-0.2 0 0.2 0 0.4 0 0.6 0 0.2 0 0.5 0 0.7l0 0.2 0 0c0 0.1 0 0.2-0.1 0.2C60.1 39.9 60 40 59.8 40c-0.1 0-0.4-0.1-0.4-0.1l0 0-0.3-0.2c-0.4-0.3-0.9-0.6-1.4-0.9-0.4-0.2-0.7-0.5-1.1-0.7l-0.1 0.2c-0.1 0.3-0.2 0.6-0.4 0.8-0.1 0.3-0.2 0.6-0.4 0.8l-0.2 0.4-0.1 0.2c-0.1 0.4-0.7 0.4-0.9 0l-0.1-0.1c-0.3-0.6-0.5-1.1-0.8-1.7-0.6-1.2-1.1-2.3-1.7-3.5-0.6-1.2-1.1-2.4-1.7-3.5l-0.2-0.4-0.1-0.2 0-0.1 0 0c0 0.1 0-0.2 0-0.2l0 0 0 0c0 0.1 0-0.2 0-0.2l0 0 0-0.1 0.4-0.8c0.3-0.6 0.6-1.1 0.9-1.6 1.1-2.2 2.2-4.2 3.1-5.9 0.2-0.4 0.4-0.8 0.7-1.2l0.1-0.1 0-0.1 0 0c0 0 0 0 0.1-0.1 0.1-0.1 0.2-0.1 0.2-0.1 0.1 0 0.2 0.1 0.2 0.1l0.1 0 0.1 0.1c0.2 0.1 0.4 0.2 0.5 0.3 0.7 0.4 1.3 0.7 1.8 1 1 0.6 1.6 0.9 1.6 0.9 0.1 0.1 0.2 0.2 0.1 0.4-0.1 0.1-0.2 0.2-0.4 0.1 0 0-0.6-0.3-1.6-0.9-0.5-0.3-1.1-0.6-1.8-1-0.2-0.1-0.3-0.2-0.5-0.3l0 0c-0.2 0.4-0.4 0.8-0.6 1.2-0.9 1.7-1.9 3.8-3.1 6-0.3 0.5-0.6 1.1-0.9 1.7l-0.4 0.8 0.1 0.2 0.2 0.4c0.6 1.2 1.1 2.3 1.7 3.5 0.6 1.2 1.2 2.3 1.7 3.5 0.2 0.4 0.4 0.7 0.5 1.1 0.1-0.2 0.2-0.5 0.3-0.7 0.1-0.3 0.2-0.6 0.3-0.8l0.2-0.4 0.1-0.2 0-0.1 0-0.1c0.1-0.1 0.1-0.2 0.2-0.2 0.2-0.1 0.4-0.1 0.5 0l0 0c0.5 0.3 1 0.6 1.4 0.9 0.4 0.2 0.7 0.5 1.1 0.7 0-0.1 0-0.1 0-0.2 0-0.2 0-0.5 0-0.7l0-0.3 0-0.2 0-0.1c0 0 0 0 0-0.1 0-0.2 0.1-0.3 0.2-0.4 0.1-0.1 0.3-0.1 0.4-0.1 0 0 0.1 0 0.1 0l0 0 0 0 0.1 0 0.1 0.1 0.3 0.1c0.2 0.1 0.4 0.2 0.6 0.3 0 0 0 0 0.1 0 0-0.1 0-0.3 0-0.5 0-1.1 0-1.8 0-1.8 0-0.3 0.2-0.5 0.5-0.5C62 34.5 62.3 34.7 62.3 35 62.3 35 62.3 35 62.3 35zM88.8 53.8c2.4-2.3 4-5.8 4.6-9.6 0.2-1.6 0.3-3.4 0.2-5.2 0 0.1 0.1 0.2 0.1 0.3 0.4 1.8 0.6 3.6 0.7 5.4 0 3.8-0.9 7.4-2.7 10.4-1.5 2.4-3.6 4.3-5.9 5.2-0.7 0.3-1.4 0.4-2.1 0.6 0.9-0.9 1.8-1.9 2.5-3.1 0.6-0.9 1-1.9 1.4-2.8 0 0 0 0 0 0C88 54.5 88.4 54.1 88.8 53.8zM79.7 54.6c0.4 0.4 0.9 0.8 1.4 1.1-0.7 0.6-1.4 1-2.2 1.3-0.2-0.4-0.3-0.8-0.5-1.1C78.9 55.6 79.3 55.2 79.7 54.6zM68.7 23.3c0.6 0 1.1 1 1.1 1.6 0 0.6-0.5 1.1-1.1 1.1-0.6 0-1.1-0.5-1.1-1.1C67.5 24.3 68 23.3 68.7 23.3zM79.5 62.2c-2.3 0.9-5 0.9-7.4 0-1.5-0.6-2.9-1.7-4-3.1-0.3-0.1-0.6-0.2-1-0.4-0.3-0.2-0.7-0.4-1-0.6 0 0-0.1-0.1-0.1-0.1 0 0 0 0.1 0 0.1-0.3-0.2-0.6-0.4-0.9-0.7l-0.2-0.1c-0.1-0.1-0.2-0.2-0.2-0.4l0-0.2c-0.1-1.2-0.2-2.3-0.1-3.3 0-0.7-0.1-4 1.1-4 0.5 0 0.7 0.5 0.8 1 0.3 1.5 0 3 0.1 4.5 0 0.4 0 0.7 0.2 1 0.4 1 2 1.5 3.1 1.5 0.9 0 1.9-0.5 2.2-1.4 0.4-1 0-2.1-0.5-3-0.1-0.3-0.3-0.6-0.3-0.9 0-0.4 0.3-0.7 0.7-0.8 1.7-0.3 2.4 3.8 2.4 4.8l0 0.1 0 0c0 0.1 0 0.2-0.1 0.3l-0.1 0.1c-0.1 0.2-0.2 0.3-0.3 0.5 0.9 0.8 2.1 1.3 3.3 1.3 0 0 0 0 0.1 0 1.8 0 3.8-0.9 5.4-2.6 2.4-2.3 4-5.8 4.6-9.6 0.2-1.6 0.3-3.4 0.2-5.2 0 0.1 0.1 0.2 0.1 0.3 0.4 1.8 0.6 3.7 0.7 5.4 0 3.8-0.9 7.4-2.7 10.4C83.8 59.5 81.7 61.3 79.5 62.2zM90.6 69.5c-0.5 0-0.9-0.4-0.9-0.9s0.4-0.9 0.9-0.9 0.9 0.4 0.9 0.9S91.1 69.5 90.6 69.5zM94 68c-0.4 0-0.7-0.3-0.7-0.7 0-0.4 0.3-0.7 0.7-0.7 0.4 0 0.7 0.3 0.7 0.7C94.7 67.7 94.4 68 94 68z" fill="#dabd00" data-fill-palette-color="accent"></path></svg></g></svg></g><g></g></svg></g></svg></g></svg></g></svg></g><defs></defs></svg><rect width="333.58291" height="239.12340737587715" fill="none" stroke="none" visibility="hidden"></rect></g></svg></g></svg>